<svg version="1" xmlns="http://www.w3.org/2000/svg" width="1226.667" height="1226.667" viewBox="0 0 920.000000 920.000000"><path d="M417.5 8.5C312.8 18.9 220 61.7 143.8 134.9c-27.7 26.5-57.9 65.5-77.9 100.6C39.1 282.5 20.2 336.6 12 390c-6.6 42.6-6.8 95.3-.5 136.8C30.7 655 103.7 768.9 211.8 839.4c59.7 39 123.5 62.1 196.7 71.2 20 2.5 69.6 3 91 1 62.4-6 116.3-21.6 169.2-49.1 120.8-62.8 208.5-178.4 235.2-310 7.3-36.2 9.5-60.8 8.8-100.5-.5-31.6-1.6-44.4-6.2-70.7-19.5-112.2-81.8-214.1-173.1-283-60.9-46-131.1-75.5-206.6-86.8-30-4.5-80-5.9-109.3-3zm88.5 23c58.9 7 112.5 24.1 161.5 51.4 75.7 42.2 137.5 106.8 175.9 183.7 76.8 153.9 55.2 337.1-55.3 468.9-17.9 21.4-48 50-70.5 66.9-96.6 72.8-220.5 101.6-339.1 79C203.4 847.9 66.3 709 35.6 533.8c-5-28.5-6-41.1-6-74.8 0-33.6.9-45.8 6-75 18.6-108.4 80.5-207.2 171.2-273.3C267.3 66.6 344 37.5 417 31.1c6.9-.6 14.3-1.3 16.5-1.5 9.7-1 59.8.4 72.5 1.9z"/><path d="M436.5 70.7c-2.7.2-5.3.7-5.6 1.1-.4.4-2.6 19.5-5 42.5l-4.3 41.7-4.1 1.1c-28.3 7.1-53.2 21.5-75.1 43.3-22.1 22.1-35.8 45.9-43.3 75.2l-1.1 4-28.2 2.8c-137.1 13.4-164 16.2-164.8 17.6-1.3 2-13 31.6-13 32.8 0 .4 6 1.4 13.4 2.1l13.3 1.2 14.6-5.5c29.2-11.1 43.2-13.8 70.2-13.9 27.9-.1 42.6 2.7 71.3 13.6 28 10.7 42.6 13.5 64 12.3 18.4-1 23.9-2.4 60.2-15.6 15.8-5.8 29.9-8.8 47-10.1 26-1.9 50.2 1.2 73.8 9.7 37.9 13.8 42.6 15 61.5 16 20.3 1.2 36.5-1.9 62.3-11.7 8.8-3.3 19.7-7.1 24.3-8.4 17.4-5.1 42.6-7.3 62.5-5.5 22.4 1.9 27.3 3.2 65.1 16.7l11 4 11-1.1c8.8-.9 10.9-1.5 10.7-2.6-.4-2.2-8.2-22.7-10.8-28.7-1.6-3.7-3-5.4-4.6-5.7-1.3-.3-44.8-4.9-96.8-10.1-52-5.3-95.1-9.9-95.8-10.3-.8-.4-2.8-5.4-4.6-11.2-9.9-32.3-29.2-60.3-56.1-81.2-15.3-12-35.1-22.4-52-27.4-3.3-1-6.4-2.1-6.8-2.4-.4-.4-2.8-19.7-5.3-43-2.4-23.3-4.7-42.6-4.9-42.8-.6-.6-48-1.1-54-.5zM143.1 359c-29 4.1-50.8 20.9-57.7 44.5-2.5 8.8-2.3 25.8.5 34.7 4.3 13.5 14.8 25 29.5 32.1 3.9 1.9 17.7 7.2 30.6 11.7 31 10.8 37.1 14.2 42.7 23.8 2.2 3.8 2.8 6.1 3.1 13.3.5 9.4-.5 13.9-4.4 20.1l-2.4 3.7 15.5-.2 15.5-.2 1-3.5c6-20.8 1.7-42.8-10.8-56.3-9.7-10.3-19.5-15.4-48.8-25.2-38.4-12.8-47.3-20.9-46.2-41.9.9-16.6 10.4-26.8 29.4-31.6 20.9-5.4 43.1.9 52.6 14.9 2 2.8 1.5 3 14-7.8 8.4-7.3 8.6-7.5 7.1-9.8-2.5-3.8-13.6-12.1-20.4-15.3-13.4-6.3-34.9-9.2-50.8-7zM745.5 359.1c-35.1 4.7-65.4 26.1-81.2 57.4-5 9.9-8.9 21.9-10.9 33.7-2.4 14.6-1.5 37.6 2 51.2 3 11.7 11.4 29.5 18 38.4 4 5.4 5.1 6.3 7 5.8 5.1-1.3 16.5-2.6 22.9-2.6 3.7 0 6.7-.3 6.7-.6 0-.4-3.1-3.9-6.9-7.9-7.4-7.9-13.3-17.1-17.5-27.6-4.8-12.3-6-19.2-6-35.9 0-13.1.3-16.8 2.3-24 10.5-39.1 41.5-64.9 77.9-65 17.8 0 34.3 6.4 46.6 18.1 4 3.8 7.6 6.9 8 6.9.3 0 5.3-3.4 11.1-7.6l10.5-7.6-4.1-5c-14.2-16.9-38.8-27.2-67.6-28.3-6.5-.2-14.9 0-18.8.6zM261.3 440.7c.3 74.8.4 77 2.4 84.4 3.2 11.2 6.6 19.1 11.7 26.8l4.6 6.8 9.2 3.1c16.1 5.3 24.6 6.6 42.8 6.6 19.3 0 28.7-1.5 44.8-7.3 5.9-2.2 15.5-5.6 21.4-7.7l10.7-3.9 3.5-7.5c4.3-9.1 7.2-19.7 8.6-31 .6-5.1 1-36.1 1-77.7V364h-26v70.7c0 66.4-.1 71.4-2 80.3-4.6 22.4-17.3 37.3-35.9 42.2-8.5 2.2-24.7 2.3-32.6.3-9-2.4-14.1-5.2-21-11.6-7.5-7-12.5-16-15.7-28-2.2-8.2-2.2-9.8-2.5-81.2l-.4-72.7h-25l.4 76.7zM474 453.3v89.4l9.3 1.1c5.1.6 10.7 1.4 12.5 1.8l3.2.6v-68.4l30.3.4c25.4.4 31.1.7 35.7 2.2 16.8 5.5 25.4 14.4 28.1 29.1 3.8 20.6-8.2 36.5-31.8 42.1-3.7.9-13.4 1.9-21.6 2.3l-14.7.6 11.7 4.3c15.8 5.9 24.6 8 38.3 9.4 11.4 1.1 11.5 1.1 16.6-1.5 12.2-6.2 22.4-17.4 26.4-28.9 2.6-7.7 3.6-22.1 2.1-30.3-.6-3.3-2.9-9.7-5.1-14.1-6.8-13.8-19.4-23.5-35.1-27.1l-7-1.5 5.5-2.3c20.9-8.5 31.6-24.4 31.6-46.8 0-24.2-14.9-41.3-42.5-48.9-7.5-2.1-10.5-2.2-50.7-2.6l-42.8-.3v89.4zm83.3-63.9c11.5 3.2 19 8.5 22.9 16.4 1.9 3.9 2.3 6.3 2.3 14.3 0 8.6-.3 10.1-3 15.4-3.7 7.3-10.1 12.4-19.4 15.6-6.1 2.1-8.7 2.3-33.8 2.7l-27.3.4v-32.9c0-18.1.3-33.3.8-33.7.4-.5 12.2-.6 26.2-.3 19 .4 27 .9 31.3 2.1zM814.4 537.4c-7.4 7.5-14.5 12.2-24.1 16.1l-5.8 2.4 3 1.1c12.3 4.8 16.9 6.3 23.8 8.1l7.8 2 6.3-5c5.6-4.4 15.6-15 15.6-16.4 0-.9-17.8-15.7-18.7-15.6-.4.1-4 3.4-7.9 7.3zM89.3 544.2c-5.6 4.6-10.2 8.9-10.2 9.6-.1.7 2.9 4.2 6.5 7.8l6.6 6.6 4.6-.7c6.4-.8 18.2-4 27-7.2l7.4-2.6-6-2.3c-3.3-1.2-7.7-3.3-9.8-4.7-3.9-2.5-12-10.3-13.6-13.1-.5-.9-1.2-1.6-1.6-1.6-.4 0-5.3 3.7-10.9 8.2zM178 585.4c-13.8 2-24.1 4.9-45 12.5-10.2 3.8-21.7 7.6-25.7 8.6-6.8 1.6-7.1 1.8-6.3 4 2.3 6 10.9 24.1 16 33.5 8.3 15.2 9.4 17 10.6 17 .6 0 6-1.9 12-4.1 21.8-8.3 41.7-11.9 65-11.9 24.7 0 41.7 3.3 69.1 13.6 30.1 11.2 33 11.8 58.8 11.8 25.6 0 29.1-.7 56.5-11.2 29.8-11.4 40.9-13.6 70-13.6 29.8-.1 41.3 2 70.5 13.1 26.7 10.1 32.8 11.5 53.5 12 25.1.7 35.4-1.4 67.5-13.7 41.9-16.1 87.4-16.2 129.9-.1 6 2.2 11.4 4.1 12 4.1 1.8 0 23.2-40.8 26.9-51.1.4-1.3-1.1-2-7.8-3.7-4.6-1.2-16.2-5.1-25.7-8.6-27.6-10.3-38.4-12.5-63.9-13.3-26.6-.8-43.1 1.5-65.4 9.4-34.1 11.9-38.3 13.2-49.5 14.9-8.4 1.2-15 1.5-24.5 1.1-15.4-.6-25.4-2.5-39-7.4-47.5-16.8-51.7-17.7-83.5-17.7-32.1 0-34.4.4-84.1 17.9-16.4 5.8-24.2 7-44.4 6.9-21.3-.1-28.6-1.4-50.1-9.4-19.2-7.2-33.5-11.6-44-13.5-12.3-2.3-46.7-2.9-59.4-1.1zM175.9 688.5c-8.3 1.3-25 5.3-25.8 6.1-1.2 1.2 17.6 23.3 34.8 40.6l12.6 12.8h11c22.3 0 38.9 3.4 66.1 13.6 25.5 9.5 33.8 11.4 51.4 12.1 23.6.9 35.6-1.4 63.9-12.1 28.2-10.7 43-13.6 70.3-13.6 27.3 0 40.4 2.6 72.5 14.6 23.2 8.6 31.1 10.4 50.3 11.1 19.9.7 30.5-1 50-7.8 8-2.8 19.5-6.8 25.5-9 16.6-5.8 28.4-7.9 47.5-8.5l16.5-.6 14-14.1C749 721 770 696.8 770 694.9c0-1-19.6-5.5-29.3-6.8-11.6-1.6-41.5-1.3-53.2.4-13.6 2.1-23.3 4.8-41.8 11.7-27.6 10.3-41.3 13-63 12.2-16.3-.5-28.9-3.4-50.7-11.4-33.3-12.3-45.7-14.5-77.5-13.8-24.5.6-34.5 2.3-54.5 9.5-41 14.7-45.2 15.6-68 15.6-18.7 0-28.1-1.6-45.8-7.9-45.4-16.2-46.8-16.5-78.2-17-16.8-.2-25.9.1-32.1 1.1zM430.6 790.5c-12.2 2-20.4 4.3-41.7 12.1-23.5 8.4-30.6 10.2-44.8 11.3-21.5 1.5-40.2-.9-59-7.8-4.7-1.7-8.6-2.9-8.8-2.8-.2.2 6.8 3.8 15.4 7.9 51.3 24.6 104.3 37.1 160.8 38.1 54 1 102.8-8 154-28.3 9.1-3.6 37.7-17.2 37.2-17.6-.2-.2-4.7 1.2-10 3.1-15.8 5.6-27.8 7.7-45.7 7.6-9.6 0-18.8-.6-24.3-1.5-8.5-1.6-13-3-42.4-13.5-22.8-8.1-29.8-9.3-57.8-9.7-17.6-.2-26.4.1-32.9 1.1z"/></svg>